# xmcd
#
# Track frame offsets:
#	150
#	13545
#	31089
#	41022
#	51650
#	63643
#	80283
#	89420
#	109793
#	127499
#
# Disc length: 1962 seconds
#
# Revision: 7
# Processed by: cddbd v1.5.2PL0 Copyright (c) Steve Scherf et al.
# Submitted via: EZCDAudioConverter 2.2.2.1
#
DISCID=8907a80a
DTITLE=B.J Shaver and W Nelson and W Jennings and  K.Kristofferson - Honky Tonk Hero
DTITLE=es
DYEAR=1999
DGENRE=Country
TTITLE0=Honky Tonk Heroes (Like Me)
TTITLE1=Willie The Wandering Gypsy And Me 
TTITLE2=I'm Just An Old Chunk Of Coal 
TTITLE3=Ain't No God In Mexico 
TTITLE4=You Asked Me To 
TTITLE5=Oklahoma Wind 
TTITLE6=I Couldn't Be Me Without You
TTITLE7=Tramp On Your Street 
TTITLE8=Easy Come Easy Go (aka. Ride Me Down Easy)
TTITLE9=We Are The Cowboys
EXTD=
EXTT0=
EXTT1=
EXTT2=
EXTT3=
EXTT4=
EXTT5=
EXTT6=
EXTT7=
EXTT8=
EXTT9=
PLAYORDER=
